<!DOCTYPE svg PUBLIC "-//W3C//DTD SVG 20010904//EN" "http://www.w3.org/TR/2001/REC-SVG-20010904/DTD/svg10.dtd">
<svg version="1.0" xmlns="http://www.w3.org/2000/svg" width="612px" height="608px" viewBox="0 0 6120 6080" preserveAspectRatio="xMidYMid meet">
<g id="layer101" fill="#008080" stroke="none">
 <path d="M0 3040 l0 -3040 3060 0 3060 0 0 3040 0 3040 -3060 0 -3060 0 0 -3040z"/>
 </g>
<g id="layer102" fill="#ffffff" stroke="none">
 <path d="M1725 4026 c-85 -21 -131 -50 -154 -99 -26 -54 -26 -80 -1 -185 32 -133 190 -513 325 -783 53 -104 56 -101 -81 -73 -134 28 -238 70 -294 121 -28 25 -53 43 -56 40 -3 -2 4 -25 16 -49 45 -97 122 -159 229 -184 84 -20 629 -19 698 1 111 33 176 116 176 224 0 137 -99 249 -278 312 l-49 17 44 12 c111 30 189 94 211 172 15 56 6 143 -20 202 -50 115 -226 228 -411 266 -109 23 -277 25 -355 6z m356 -85 c163 -63 232 -160 232 -327 -1 -80 -19 -128 -65 -174 -41 -42 -83 -51 -160 -34 -85 18 -178 18 -178 1 0 -41 103 -73 202 -64 72 6 136 -22 196 -87 62 -67 85 -119 90 -206 3 -66 1 -79 -20 -110 -40 -61 -184 -112 -223 -80 -26 21 -123 200 -205 378 -208 450 -260 683 -161 721 46 18 229 7 292 -18z"/>
 <path d="M3696 3961 c-36 -36 -46 -54 -42 -69 4 -10 91 -99 194 -197 103 -98 188 -181 190 -184 1 -3 -31 -42 -71 -85 l-72 -79 -32 17 c-18 9 -40 16 -50 16 -20 0 -343 -318 -343 -338 0 -35 50 2 189 142 l154 154 44 -21 43 -21 90 89 90 90 21 -21 20 -21 -83 -78 c-46 -43 -86 -83 -91 -91 -4 -7 2 -28 14 -48 15 -26 18 -39 10 -53 -5 -10 -75 -83 -155 -163 -80 -80 -146 -150 -146 -157 0 -36 51 2 193 145 132 133 157 163 157 188 0 16 -6 39 -14 50 -14 19 -10 26 64 99 l79 78 48 -41 c102 -86 108 -95 108 -175 1 -90 25 -147 94 -220 73 -77 128 -102 223 -102 62 0 82 4 104 21 53 39 68 70 72 144 4 61 1 78 -23 125 -33 69 -105 142 -170 175 -39 19 -67 25 -124 26 l-73 1 -75 75 -74 75 195 184 c147 138 196 190 196 208 0 29 -79 111 -107 111 -12 0 -87 -71 -204 -195 l-184 -195 -85 88 c-46 48 -131 135 -189 195 -57 59 -111 107 -120 107 -9 0 -38 -22 -65 -49z m380 -323 c169 -178 312 -326 320 -331 7 -4 25 -2 41 4 64 24 188 -24 247 -96 75 -91 96 -187 56 -253 -72 -117 -287 -49 -370 117 -19 38 -22 56 -18 118 l5 73 -276 263 c-152 144 -301 285 -331 314 l-55 52 29 30 c17 17 33 31 37 31 5 0 146 -145 315 -322z m499 292 l29 -30 -30 -31 c-16 -17 -100 -99 -187 -182 l-158 -150 -24 24 -24 24 177 187 c97 103 180 188 183 188 3 0 18 -13 34 -30z"/>
 <path d="M2919 3945 c-124 -30 -234 -123 -293 -245 -29 -62 -31 -71 -31 -185 0 -116 1 -122 33 -186 36 -72 114 -157 177 -194 114 -67 287 -74 408 -18 132 63 226 191 250 343 20 131 -22 258 -118 359 -114 120 -266 165 -426 126z m227 -60 c111 -33 218 -141 251 -254 76 -261 -132 -520 -401 -498 -263 22 -429 299 -323 539 44 98 144 187 247 219 43 13 174 10 226 -6z"/>
 <path d="M2915 3767 c-27 -13 -69 -45 -92 -70 -159 -173 -32 -452 206 -451 78 1 124 18 181 71 138 124 114 345 -47 440 -67 39 -178 44 -248 10z m180 -38 c26 -7 56 -28 86 -59 79 -81 88 -184 26 -277 -79 -116 -251 -126 -344 -20 -41 47 -56 96 -51 168 6 79 43 134 117 172 59 29 102 33 166 16z"/>
 <path d="M3652 3107 c-102 -103 -132 -147 -100 -147 21 0 247 231 241 246 -3 8 -10 14 -17 14 -6 0 -62 -51 -124 -113z"/>
 <path d="M3711 3036 c-80 -80 -112 -119 -108 -130 4 -9 12 -16 18 -16 20 0 239 222 239 242 0 39 -40 13 -149 -96z"/>
 <path d="M1610 2566 c-154 -36 -204 -102 -180 -237 24 -131 137 -414 306 -768 41 -85 73 -155 71 -157 -1 -2 -47 6 -102 16 -171 34 -249 65 -321 132 -25 23 -47 39 -50 36 -8 -9 33 -90 67 -132 40 -48 92 -80 165 -103 51 -16 98 -18 364 -18 357 0 380 4 461 85 77 77 87 176 29 289 -37 73 -142 150 -247 181 l-42 13 63 21 c132 45 187 107 194 221 8 134 -60 240 -209 328 -152 89 -405 130 -569 93z m289 -71 c129 -34 215 -99 260 -194 34 -75 37 -204 4 -266 -48 -91 -98 -111 -224 -89 -132 22 -185 12 -144 -29 24 -25 82 -37 175 -37 97 0 138 -16 203 -78 89 -86 128 -244 80 -323 -29 -45 -88 -78 -160 -87 l-58 -8 -33 48 c-51 76 -134 237 -220 433 -93 210 -135 324 -156 429 -28 132 -17 182 44 203 48 16 164 16 229 -2z"/>
 <path d="M2741 2564 l-23 -16 6 -217 c4 -119 9 -260 12 -313 l6 -97 -61 -65 c-76 -82 -95 -139 -89 -265 4 -67 10 -97 31 -137 99 -193 290 -151 344 75 30 129 3 238 -82 329 l-55 59 7 315 6 315 -24 16 c-30 21 -48 21 -78 1z"/>
 <path d="M3415 2571 c-87 -23 -144 -70 -166 -139 -7 -23 -14 -133 -16 -284 l-5 -248 -49 0 -49 0 0 -125 0 -125 50 0 49 0 3 -77 3 -77 140 -82 c77 -45 143 -83 148 -83 4 -1 7 71 7 159 l0 160 75 0 76 0 -3 123 -3 122 -72 3 -73 3 0 208 c0 160 3 210 13 214 7 2 38 -3 70 -13 31 -10 57 -17 57 -16 8 23 26 233 22 238 -31 29 -215 56 -277 39z m155 -72 c54 -11 58 -19 44 -85 -5 -28 -8 -29 -53 -26 -99 7 -109 -24 -110 -350 l-1 -208 80 0 80 0 0 -55 0 -54 -77 -3 -78 -3 -5 -131 -5 -131 -70 42 -70 41 -3 92 -3 92 -49 0 -50 0 0 55 0 55 49 0 49 0 4 283 c4 336 8 348 105 383 47 16 97 17 163 3z"/>
 <path d="M4148 2510 c-135 -16 -251 -97 -304 -213 -28 -60 -29 -68 -29 -212 0 -172 12 -226 79 -365 51 -108 159 -221 254 -268 193 -95 437 -78 552 38 61 60 84 126 78 220 -16 217 -200 333 -567 356 l-113 7 6 56 c8 66 42 123 88 148 56 30 192 23 303 -16 50 -17 98 -34 108 -37 15 -6 17 3 17 100 l0 106 -37 19 c-59 29 -143 50 -244 61 -103 11 -96 11 -191 0z m209 -666 c70 -23 120 -65 133 -115 37 -135 -115 -174 -240 -62 -49 44 -110 147 -110 186 0 19 5 20 83 14 45 -3 105 -13 134 -23z"/>
 </g>

</svg>